<svg xmlns="http://www.w3.org/2000/svg" fill="none" viewBox="0 0 100 100"><g clip-path="url(#a)"><path fill="url(#b)" d="m97.14 16.796-3.515 53.125L61.203-.001zm-22.656 68.75L50.266 99.609l-24.61-14.063 4.688-12.11h39.453zM50.266 26.562l12.5 31.25H37.375zM6.516 69.92 3 16.796 38.938-.001z"/><path fill="url(#c)" d="m97.14 16.796-3.515 53.125L61.203-.001zm-22.656 68.75L50.266 99.609l-24.61-14.063 4.688-12.11h39.453zM50.266 26.562l12.5 31.25H37.375zM6.516 69.92 3 16.796 38.938-.001z"/></g><defs><linearGradient id="b" x1="23.781" x2="98.703" y1="90.585" y2="54.96" gradientUnits="userSpaceOnUse"><stop stop-color="#E40035"/><stop offset=".2" stop-color="#F60A48"/><stop offset=".4" stop-color="#F20755"/><stop offset=".5" stop-color="#DC087D"/><stop offset=".7" stop-color="#9717E7"/><stop offset="1" stop-color="#6C00F5"/></linearGradient><linearGradient id="c" x1="20.383" x2="69.406" y1="11.991" y2="67.968" gradientUnits="userSpaceOnUse"><stop stop-color="#FF31D9"/><stop offset="1" stop-color="#FF5BE1" stop-opacity="0"/></linearGradient><clipPath id="a"><path fill="#fff" d="M3 0h94.531v100H3z"/></clipPath></defs></svg>